<?xml version="1.0" encoding="utf-8"?>
<!-- Generator: Adobe Illustrator 21.0.2, SVG Export Plug-In . SVG Version: 6.00 Build 0)  -->
<svg version="1.1" id="Layer_1" xmlns="http://www.w3.org/2000/svg" xmlns:xlink="http://www.w3.org/1999/xlink" x="0px" y="0px"
	 viewBox="0 0 50 50" style="enable-background:new 0 0 50 50;" xml:space="preserve">
<style type="text/css">
	.st0{fill:#FFFFFF;}
	.st1{fill:#FF6F00;}
	.st2{fill:#FF6F00;stroke:#FF6F00;stroke-width:0.2;stroke-miterlimit:10;}
	.st3{fill:#00A53C;}
	.st4{clip-path:url(#SVGID_2_);fill:#FFFFFF;}
	.st5{clip-path:url(#SVGID_4_);fill:#00A53C;}
	.st6{fill:#7D7D7D;}
	.st7{clip-path:url(#SVGID_6_);fill:#7D7D7D;}
	.st8{clip-path:url(#SVGID_8_);fill:#FFFFFF;}
	.st9{clip-path:url(#SVGID_10_);fill:#FFFFFF;}
	.st10{clip-path:url(#SVGID_12_);fill:#FFFFFF;}
	.st11{clip-path:url(#SVGID_14_);fill:#FFFFFF;}
	.st12{clip-path:url(#SVGID_16_);fill:#FFFFFF;}
	.st13{clip-path:url(#SVGID_18_);fill:#FFFFFF;}
	.st14{clip-path:url(#SVGID_20_);fill:#FFFFFF;}
	.st15{clip-path:url(#SVGID_22_);fill:#787978;}
	.st16{clip-path:url(#SVGID_24_);fill:#787978;}
	.st17{clip-path:url(#SVGID_26_);fill:#787978;}
	.st18{clip-path:url(#SVGID_28_);fill:#787978;}
	.st19{clip-path:url(#SVGID_30_);fill:#787978;}
	.st20{clip-path:url(#SVGID_32_);fill:#787978;}
	.st21{fill:#007AFF;}
	.st22{clip-path:url(#SVGID_34_);fill:#FFFFFF;}
	.st23{clip-path:url(#SVGID_36_);fill:#00A53C;}
	.st24{clip-path:url(#SVGID_38_);fill:#7D7D7D;}
	.st25{clip-path:url(#SVGID_40_);fill:#FFFFFF;}
	.st26{clip-path:url(#SVGID_42_);fill:#FFFFFF;}
	.st27{clip-path:url(#SVGID_44_);fill:#FFFFFF;}
	.st28{clip-path:url(#SVGID_46_);fill:#FFFFFF;}
	.st29{clip-path:url(#SVGID_48_);fill:#FFFFFF;}
	.st30{clip-path:url(#SVGID_50_);fill:#FFFFFF;}
	.st31{clip-path:url(#SVGID_52_);fill:#FFFFFF;}
	.st32{clip-path:url(#SVGID_54_);fill:#787978;}
	.st33{clip-path:url(#SVGID_56_);fill:#787978;}
	.st34{clip-path:url(#SVGID_58_);fill:#787978;}
	.st35{clip-path:url(#SVGID_60_);fill:#787978;}
	.st36{clip-path:url(#SVGID_62_);fill:#787978;}
	.st37{clip-path:url(#SVGID_64_);fill:#787978;}
	
		.st38{clip-path:url(#SVGID_66_);fill:none;stroke:#FF6F00;stroke-width:0.9412;stroke-linecap:round;stroke-linejoin:round;stroke-miterlimit:10;}
	.st39{clip-path:url(#SVGID_68_);}
	.st40{clip-path:url(#SVGID_70_);fill:#FF6F00;}
	.st41{fill:#C2C2C2;}
</style>
<g>
	<path class="st41" d="M42,50H8c-1.3,0-2.6-0.6-3.5-1.6c-0.9-1-1.3-2.3-1.1-3.7l3.8-30.2c0.3-2.3,2.3-4.1,4.6-4.1h26.4
		c2.3,0,4.3,1.8,4.6,4.1l3.8,30.2c0.2,1.3-0.2,2.7-1.1,3.7C44.6,49.4,43.3,50,42,50z M11.8,12.8c-1.2,0-2.2,0.9-2.3,2L5.7,45.1
		c-0.1,0.7,0.1,1.3,0.6,1.8c0.4,0.5,1.1,0.8,1.7,0.8h34c0.7,0,1.3-0.3,1.7-0.8c0.4-0.5,0.6-1.2,0.6-1.8l-3.8-30.2
		c-0.1-1.2-1.1-2-2.3-2H11.8z"/>
	<path class="st41" d="M34.3,11.6c-0.6,0-1.2-0.5-1.2-1.2c0-4.5-3.7-8.1-8.1-8.1c-4.5,0-8.1,3.7-8.1,8.1c0,0.6-0.5,1.2-1.2,1.2
		c-0.6,0-1.2-0.5-1.2-1.2C14.5,4.7,19.2,0,25,0c5.8,0,10.5,4.7,10.5,10.5C35.5,11.1,34.9,11.6,34.3,11.6z"/>
	<path class="st41" d="M29.7,11.6c-0.6,0-1.2-0.5-1.2-1.2C28.5,8.5,26.9,7,25,7c-1.9,0-3.5,1.6-3.5,3.5c0,0.6-0.5,1.2-1.2,1.2
		c-0.6,0-1.2-0.5-1.2-1.2c0-3.2,2.6-5.8,5.8-5.8c3.2,0,5.8,2.6,5.8,5.8C30.8,11.1,30.3,11.6,29.7,11.6z"/>
</g>
</svg>
