<?xml version="1.0" encoding="UTF-8"?>
<svg width="50px" height="44px" viewBox="0 0 50 44" version="1.1" xmlns="http://www.w3.org/2000/svg" xmlns:xlink="http://www.w3.org/1999/xlink">
    <!-- Generator: Sketch 62 (91390) - https://sketch.com -->
    <title>ic_customers</title>
    <desc>Created with Sketch.</desc>
    <defs>
        <polygon id="path-1" points="0.0002 0 36.0002 0 36.0002 43.999 0.0002 43.999"></polygon>
    </defs>
    <g id="Become-a-partner" stroke="none" stroke-width="1" fill="none" fill-rule="evenodd">
        <g transform="translate(-704.000000, -890.000000)" id="header-content">
            <g transform="translate(0.000000, -1986.000000)">
                <g id="Benefits" transform="translate(0.000000, 2786.000000)">
                    <g id="Group-2" transform="translate(539.000000, 90.000000)">
                        <g id="ic_customers" transform="translate(165.000000, 0.000000)">
                            <g id="Group-10">
                                <path d="M28.0002,39.999 L28.0002,43.999 L35.0002,43.999 L35.0002,39.999 C35.0002,31.163 27.8362,23.999 19.0002,23.999 C17.9742,23.999 15.9722,24.107 15.0002,24.291 C22.4022,25.697 28.0002,32.191 28.0002,39.999" id="Fill-1" fill="#FFFAFC"></path>
                                <path d="M18.0002,1.999 C16.9482,1.999 15.9542,2.207 15.0002,2.511 C19.0422,3.793 22.0002,7.539 22.0002,11.999 C22.0002,16.461 19.0422,20.207 15.0002,21.489 C15.9542,21.791 16.9482,21.999 18.0002,21.999 C23.5142,21.999 28.0002,17.515 28.0002,11.999 C28.0002,6.485 23.5142,1.999 18.0002,1.999" id="Fill-3" fill="#FFFAFC"></path>
                                <g id="Group-7">
                                    <mask id="mask-2" fill="white">
                                        <use xlink:href="#path-1"></use>
                                    </mask>
                                    <g id="Clip-6"></g>
                                    <path d="M8.0002,11.999 C8.0002,6.485 12.4862,1.999 18.0002,1.999 C23.5142,1.999 28.0002,6.485 28.0002,11.999 C28.0002,17.515 23.5142,21.999 18.0002,21.999 C12.4862,21.999 8.0002,17.515 8.0002,11.999 M23.2402,22.785 C27.2382,20.837 30.0002,16.745 30.0002,11.999 C30.0002,5.373 24.6282,-0.001 18.0002,-0.001 C11.3722,-0.001 6.0002,5.373 6.0002,11.999 C6.0002,16.745 8.7622,20.837 12.7602,22.785 C5.3842,25.035 0.0002,31.897 0.0002,39.999 L0.0002,42.999 C0.0002,43.551 0.4482,43.999 1.0002,43.999 C1.5522,43.999 2.0002,43.551 2.0002,42.999 L2.0002,39.999 C2.0002,31.179 9.1782,23.999 18.0002,23.999 C26.8222,23.999 34.0002,31.179 34.0002,39.999 L34.0002,42.999 C34.0002,43.551 34.4482,43.999 35.0002,43.999 C35.5522,43.999 36.0002,43.551 36.0002,42.999 L36.0002,39.999 C36.0002,31.895 30.6162,25.033 23.2402,22.785" id="Fill-5" fill-opacity="0.5" fill="#FF0365" mask="url(#mask-2)"></path>
                                </g>
                                <path d="M44.638,16.1572 L43.92,16.8832 L44.086,17.8892 L44.612,21.0672 L41.956,19.6192 L40.998,19.0992 L40.04,19.6192 L37.384,21.0672 L37.91,17.8872 L38.076,16.8812 L37.358,16.1552 L35.066,13.8392 L38.168,13.3692 L39.22,13.2112 L39.676,12.2512 L40.998,9.4732 L42.32,12.2512 L42.776,13.2112 L43.828,13.3692 L46.93,13.8392 L44.638,16.1572 Z M49.206,12.1592 L44.128,11.3932 L41.818,6.5392 C41.646,6.1812 41.324,5.9992 41,5.9992 C40.676,5.9992 40.354,6.1812 40.182,6.5392 L37.872,11.3932 L32.794,12.1592 C32.026,12.2772 31.726,13.3052 32.294,13.8792 L35.94,17.5652 L35.07,22.8252 C34.964,23.4712 35.436,24.0012 35.976,24.0012 C36.112,24.0012 36.252,23.9672 36.39,23.8932 L41.002,21.3792 L45.614,23.8932 C45.75,23.9672 45.892,24.0012 46.028,24.0012 C46.568,24.0012 47.04,23.4712 46.934,22.8252 L46.064,17.5652 L49.71,13.8792 C50.274,13.3052 49.974,12.2772 49.206,12.1592 L49.206,12.1592 Z" id="Fill-8" fill="#FF81B2"></path>
                            </g>
                        </g>
                    </g>
                </g>
            </g>
        </g>
    </g>
</svg>