<?xml version="1.0" encoding="UTF-8"?>
<svg width="32px" height="44px" viewBox="0 0 32 44" version="1.1" xmlns="http://www.w3.org/2000/svg" xmlns:xlink="http://www.w3.org/1999/xlink">
    <!-- Generator: Sketch 62 (91390) - https://sketch.com -->
    <title>ic_delivered</title>
    <desc>Created with Sketch.</desc>
    <defs>
        <polygon id="path-1" points="0 0 31.67824 0 31.67824 44 0 44"></polygon>
    </defs>
    <g id="Become-a-partner" stroke="none" stroke-width="1" fill="none" fill-rule="evenodd">
        <g transform="translate(-1084.000000, -890.000000)" id="header-content">
            <g transform="translate(0.000000, -1986.000000)">
                <g id="Benefits" transform="translate(0.000000, 2786.000000)">
                    <g id="Group-5" transform="translate(979.000000, 90.000000)">
                        <g id="ic_delivered" transform="translate(105.000000, 0.000000)">
                            <g id="Group-8">
                                <polygon id="Fill-1" fill="#E8E5FE" points="2.010096 36.960704 1.758416 42.240704 29.918416 42.240704 29.663216 36.960704"></polygon>
                                <g id="Group-7">
                                    <g id="Group-4">
                                        <mask id="mask-2" fill="white">
                                            <use xlink:href="#path-1"></use>
                                        </mask>
                                        <g id="Clip-3"></g>
                                        <path d="M3.351216,8.8 L8.882896,8.8 L8.882896,14.96 C8.882896,15.44576 9.277136,15.84 9.762896,15.84 C10.248656,15.84 10.642896,15.44576 10.642896,14.96 L10.642896,8.8 L21.202896,8.8 L21.202896,14.96 C21.202896,15.44576 21.597136,15.84 22.082896,15.84 C22.568656,15.84 22.962896,15.44576 22.962896,14.96 L22.962896,8.8 L28.242896,8.8 L28.283376,8.8 L28.304496,8.8 L29.576976,35.2 L2.092816,35.2 L3.351216,8.8 Z M15.924656,1.76 C18.835696,1.76 21.204656,4.12896 21.204656,7.04 L10.644656,7.04 C10.644656,4.12896 13.011856,1.76 15.924656,1.76 L15.924656,1.76 Z M30.083856,8.71552 C30.039856,7.77744 29.265456,7.04 28.325616,7.04 L22.964656,7.04 C22.964656,3.15216 19.812496,0 15.924656,0 C12.036816,0 8.884656,3.15216 8.884656,7.04 L3.352976,7.04 C2.413136,7.04 1.638736,7.77744 1.594736,8.71552 L0.001936,42.15552 C-0.045584,43.15872 0.755216,44 1.760176,44 L29.918416,44 C30.923376,44 31.724176,43.16048 31.676656,42.15552 L30.083856,8.71552 Z" id="Fill-2" fill="#FF81B2" mask="url(#mask-2)"></path>
                                        <polygon id="Path" fill="#FFFAFC" points="1.758416 42.24 2.010096 36.96 29.663216 36.96 29.918416 42.24"></polygon>
                                    </g>
                                    <path d="M22.620752,19.61784 C22.279312,19.27464 21.719632,19.27464 21.376432,19.61784 L13.144912,27.84936 L10.242672,25.72328 C9.869552,25.41176 9.315152,25.46104 9.003632,25.83416 C8.690352,26.20728 8.741392,26.7652 9.114512,27.07496 L12.634512,29.71496 C12.798192,29.85224 12.998832,29.92088 13.197712,29.92088 C13.422992,29.92088 13.648272,29.83464 13.820752,29.66216 L22.620752,20.86216 C22.963952,20.51896 22.963952,19.96104 22.620752,19.61784" id="Fill-5" fill="#FF81B2"></path>
                                </g>
                            </g>
                        </g>
                    </g>
                </g>
            </g>
        </g>
    </g>
</svg>