<?xml version="1.0" encoding="UTF-8"?>
<svg width="41px" height="44px" viewBox="0 0 41 44" version="1.1" xmlns="http://www.w3.org/2000/svg" xmlns:xlink="http://www.w3.org/1999/xlink">
    <!-- Generator: Sketch 62 (91390) - https://sketch.com -->
    <title>ic_revenue</title>
    <desc>Created with Sketch.</desc>
    <defs>
        <polygon id="path-1" points="-0.000466963486 0 21.12 0 21.12 44 -0.000466963486 44"></polygon>
    </defs>
    <g id="Become-a-partner" stroke="none" stroke-width="1" fill="none" fill-rule="evenodd">
        <g transform="translate(-319.000000, -890.000000)" id="header-content">
            <g transform="translate(0.000000, -1986.000000)">
                <g id="Benefits" transform="translate(0.000000, 2786.000000)">
                    <g id="ic_revenue" transform="translate(319.000000, 90.000000)">
                        <g id="Group-12">
                            <path d="M5.28,41.36 C5.28,41.84576 4.88576,42.24 4.4,42.24 L2.64,42.24 C2.15424,42.24 1.76,41.84576 1.76,41.36 L1.76,31.68 C1.76,31.19424 2.15424,30.8 2.64,30.8 L4.4,30.8 C4.88576,30.8 5.28,31.19424 5.28,31.68 L5.28,41.36 Z" id="Fill-1" fill="#FFFAFC"></path>
                            <path d="M31.68,12.32 L31.68,41.36 C31.68,41.84576 31.28576,42.24 30.8,42.24 L29.04,42.24 C28.55424,42.24 28.16,41.84576 28.16,41.36 L28.16,12.32 L21.90848,12.32 L29.91472,1.76 L29.91648,1.76 L37.928,12.32 L31.68,12.32 Z" id="Fill-3" fill="#FFFFFF"></path>
                            <path d="M5.28,41.36 C5.28,41.84576 4.88576,42.24 4.4,42.24 L2.64,42.24 C2.15424,42.24 1.76,41.84576 1.76,41.36 L1.76,31.68 C1.76,31.19424 2.15424,30.8 2.64,30.8 L4.4,30.8 C4.88576,30.8 5.28,31.19424 5.28,31.68 L5.28,41.36 Z M4.4,29.04 L2.64,29.04 C1.18272,29.04 0,30.22272 0,31.68 L0,41.36 C0,42.81728 1.18272,44 2.64,44 L4.4,44 C5.85728,44 7.04,42.81728 7.04,41.36 L7.04,31.68 C7.04,30.22272 5.85728,29.04 4.4,29.04 L4.4,29.04 Z" id="Fill-5" 
                            fill="#FF81B2"></path>
                            <path d="M16.72,19.36 L14.96,19.36 C13.50272,19.36 12.32,20.54272 12.32,22 L12.32,41.36 C12.32,42.81728 13.50272,44 14.96,44 L16.72,44 C18.17728,44 19.36,42.81728 19.36,41.36 L19.36,22 C19.36,20.54272 18.17728,19.36 16.72,19.36 L16.72,19.36 Z" id="Fill-7" 
                            fill="#FF81B2"></path>
                            <path d="M17.6,41.36 C17.6,41.84576 17.20576,42.24 16.72,42.24 L14.96,42.24 C14.47424,42.24 14.08,41.84576 14.08,41.36 L14.08,22 C14.08,21.51424 14.47424,21.12 14.96,21.12 L16.72,21.12 C17.20576,21.12 17.6,21.51424 17.6,22 L17.6,41.36 Z" id="Path" fill="#FFFFFF"></path>
                            <g id="Group-11" transform="translate(19.360000, 0.000000)">
                                <mask id="mask-2" fill="white">
                                    <use xlink:href="#path-1"></use>
                                </mask>
                                <g id="Clip-10"></g>
                                <path d="M12.32,12.32 L12.32,41.36 C12.32,41.84576 11.92576,42.24 11.44,42.24 L9.68,42.24 C9.19424,42.24 8.8,41.84576 8.8,41.36 L8.8,12.32 L2.54848,12.32 L10.55472,1.76 L10.55648,1.76 L18.568,12.32 L12.32,12.32 Z M20.96512,12.70368 L11.968,0.704 C11.616,0.23408 11.088,0 10.56,0 C10.032,0 9.504,0.23408 9.152,0.704 L0.15488,12.70368 C-0.24464,13.288 0.17248,14.08 0.88176,14.08 L7.04,14.08 L7.04,41.36 C7.04,42.81728 8.22272,44 9.68,44 L11.44,44 C12.89728,44 14.08,42.81728 14.08,41.36 L14.08,14.08 L20.23824,14.08 C20.94576,14.08 21.36464,13.288 20.96512,12.70368 L20.96512,12.70368 Z" id="Fill-9" 
                                fill="#FF81B2"></path>
                            </g>
                        </g>
                    </g>
                </g>
            </g>
        </g>
    </g>
</svg>