<?xml version="1.0" encoding="utf-8"?>
<!-- Generator: Adobe Illustrator 21.0.2, SVG Export Plug-In . SVG Version: 6.00 Build 0)  -->
<svg version="1.1" id="Layer_1" xmlns="http://www.w3.org/2000/svg" xmlns:xlink="http://www.w3.org/1999/xlink" x="0px" y="0px"
	 viewBox="0 0 21 20" style="enable-background:new 0 0 21 20;" xml:space="preserve">
<style type="text/css">
	.st0{clip-path:url(#SVGID_2_);fill:#00A53C;}
	.st1{clip-path:url(#SVGID_4_);fill:#00A53C;}
	.st2{fill:#757575;}
	.st3{fill:#FFFFFF;}
	.st4{opacity:0.54;clip-path:url(#SVGID_6_);fill:#BFBFBF;}
	.st5{fill:#212121;}
	.st6{opacity:0.54;clip-path:url(#SVGID_8_);fill:#BFBFBF;}
	.st7{fill-rule:evenodd;clip-rule:evenodd;fill:#212121;}
	.st8{fill:#141E73;}
	.st9{fill-rule:evenodd;clip-rule:evenodd;fill:#FFFFFF;}
	.st10{clip-path:url(#SVGID_10_);}
	.st11{clip-path:url(#SVGID_12_);fill:#FFFFFF;}
	.st12{clip-path:url(#SVGID_14_);}
	.st13{clip-path:url(#SVGID_16_);fill:#FFFFFF;}
	.st14{clip-path:url(#SVGID_18_);}
	.st15{clip-path:url(#SVGID_20_);fill:#FFFFFF;}
	.st16{clip-path:url(#SVGID_22_);}
	.st17{clip-path:url(#SVGID_24_);fill:#FFFFFF;}
	.st18{fill:#FF6F00;}
</style>
<g>
	<path class="st18" d="M10.3,12.7c-0.4,0-0.8-0.4-0.8-0.8V7c0-0.4,0.4-0.8,0.8-0.8c0.4,0,0.8,0.4,0.8,0.8v4.9
		C11.1,12.3,10.8,12.7,10.3,12.7z"/>
	<path class="st18" d="M10.3,15.9c-0.4,0-0.8-0.4-0.8-0.8v-0.8c0-0.4,0.4-0.8,0.8-0.8c0.4,0,0.8,0.4,0.8,0.8v0.8
		C11.1,15.6,10.8,15.9,10.3,15.9z"/>
	<path class="st18" d="M18.2,20H2.4c-0.9,0-1.6-0.4-2.1-1.2c-0.4-0.7-0.5-1.6-0.1-2.4L8.1,1.3C8.6,0.5,9.4,0,10.3,0
		c0.9,0,1.7,0.5,2.2,1.3l7.9,15.1c0.4,0.8,0.4,1.7-0.1,2.4C19.8,19.6,19,20,18.2,20z M10.3,1.6c-0.3,0-0.6,0.2-0.7,0.4L1.7,17.2
		c-0.2,0.4,0,0.7,0,0.8c0.1,0.1,0.3,0.4,0.7,0.4h15.7c0.4,0,0.6-0.3,0.7-0.4c0.1-0.1,0.2-0.4,0-0.8L11,2.1
		C10.9,1.8,10.6,1.6,10.3,1.6z"/>
</g>
</svg>
