<?xml version="1.0" encoding="utf-8"?>
<!-- Generator: Adobe Illustrator 21.0.2, SVG Export Plug-In . SVG Version: 6.00 Build 0)  -->
<svg version="1.1" id="Layer_1" xmlns="http://www.w3.org/2000/svg" xmlns:xlink="http://www.w3.org/1999/xlink" x="0px" y="0px"
	 viewBox="0 0 58 56.5" style="enable-background:new 0 0 58 56.5;" xml:space="preserve">
<style type="text/css">
	.st0{fill:#FFFFFF;}
	.st1{fill:#ec4646;}
	.st2{fill:#ec4646;stroke:#ec4646;stroke-width:0.2;stroke-miterlimit:10;}
	.st3{fill:#00A53C;}
	.st4{clip-path:url(#SVGID_2_);fill:#FFFFFF;}
	.st5{clip-path:url(#SVGID_4_);fill:#00A53C;}
	.st6{fill:#7D7D7D;}
	.st7{clip-path:url(#SVGID_6_);fill:#7D7D7D;}
	.st8{clip-path:url(#SVGID_8_);fill:#FFFFFF;}
	.st9{clip-path:url(#SVGID_10_);fill:#FFFFFF;}
	.st10{clip-path:url(#SVGID_12_);fill:#FFFFFF;}
	.st11{clip-path:url(#SVGID_14_);fill:#FFFFFF;}
	.st12{clip-path:url(#SVGID_16_);fill:#FFFFFF;}
	.st13{clip-path:url(#SVGID_18_);fill:#FFFFFF;}
	.st14{clip-path:url(#SVGID_20_);fill:#FFFFFF;}
	.st15{clip-path:url(#SVGID_22_);fill:#787978;}
	.st16{clip-path:url(#SVGID_24_);fill:#787978;}
	.st17{clip-path:url(#SVGID_26_);fill:#787978;}
	.st18{clip-path:url(#SVGID_28_);fill:#787978;}
	.st19{clip-path:url(#SVGID_30_);fill:#787978;}
	.st20{clip-path:url(#SVGID_32_);fill:#787978;}
	.st21{fill:#007AFF;}
	.st22{clip-path:url(#SVGID_34_);fill:#FFFFFF;}
	.st23{clip-path:url(#SVGID_36_);fill:#00A53C;}
	.st24{clip-path:url(#SVGID_38_);fill:#7D7D7D;}
	.st25{clip-path:url(#SVGID_40_);fill:#FFFFFF;}
	.st26{clip-path:url(#SVGID_42_);fill:#FFFFFF;}
	.st27{clip-path:url(#SVGID_44_);fill:#FFFFFF;}
	.st28{clip-path:url(#SVGID_46_);fill:#FFFFFF;}
	.st29{clip-path:url(#SVGID_48_);fill:#FFFFFF;}
	.st30{clip-path:url(#SVGID_50_);fill:#FFFFFF;}
	.st31{clip-path:url(#SVGID_52_);fill:#FFFFFF;}
	.st32{clip-path:url(#SVGID_54_);fill:#787978;}
	.st33{clip-path:url(#SVGID_56_);fill:#787978;}
	.st34{clip-path:url(#SVGID_58_);fill:#787978;}
	.st35{clip-path:url(#SVGID_60_);fill:#787978;}
	.st36{clip-path:url(#SVGID_62_);fill:#787978;}
	.st37{clip-path:url(#SVGID_64_);fill:#787978;}
</style>
<g>
	<path class="st1" d="M11.9,28.3c0-0.8,0.7-1.5,1.5-1.5h43.1c0.8,0,1.5,0.7,1.5,1.5c0,0.8-0.7,1.5-1.5,1.5H13.4
		C12.6,29.7,11.9,29.1,11.9,28.3z"/>
	<path class="st1" d="M38.2,45.1c0-0.4,0.1-0.8,0.4-1.1l15.8-15.8L38.6,12.5c-0.6-0.6-0.6-1.5,0-2.1c0.6-0.6,1.5-0.6,2.1,0
		l16.8,16.8c0.6,0.6,0.6,1.5,0,2.1L40.7,46.1c-0.6,0.6-1.5,0.6-2.1,0C38.3,45.8,38.2,45.5,38.2,45.1z"/>
	<path class="st1" d="M0,49.1V7.4C0,3.3,3.3,0,7.4,0h8.9c0.8,0,1.5,0.7,1.5,1.5S17.2,3,16.4,3H7.4C5,3,3,5,3,7.4v41.6
		c0,2.5,2,4.5,4.5,4.5h8.9c0.8,0,1.5,0.7,1.5,1.5c0,0.8-0.7,1.5-1.5,1.5H7.4C3.3,56.5,0,53.2,0,49.1z"/>
</g>
</svg>
