<?xml version="1.0" encoding="utf-8"?>
<!-- Generator: Adobe Illustrator 21.0.2, SVG Export Plug-In . SVG Version: 6.00 Build 0)  -->
<svg version="1.1" id="Layer_1" xmlns="http://www.w3.org/2000/svg" xmlns:xlink="http://www.w3.org/1999/xlink" x="0px" y="0px"
	 viewBox="0 0 58 56.4" style="enable-background:new 0 0 58 56.4;" xml:space="preserve">
<style type="text/css">
	.st0{fill:#FFFFFF;}
	.st1{fill:#ec4646;}
	.st2{fill:#ec4646;stroke:#ec4646;stroke-width:0.2;stroke-miterlimit:10;}
	.st3{fill:#00A53C;}
	.st4{clip-path:url(#SVGID_2_);fill:#FFFFFF;}
	.st5{clip-path:url(#SVGID_4_);fill:#00A53C;}
	.st6{fill:#7D7D7D;}
	.st7{clip-path:url(#SVGID_6_);fill:#7D7D7D;}
	.st8{clip-path:url(#SVGID_8_);fill:#FFFFFF;}
	.st9{clip-path:url(#SVGID_10_);fill:#FFFFFF;}
	.st10{clip-path:url(#SVGID_12_);fill:#FFFFFF;}
	.st11{clip-path:url(#SVGID_14_);fill:#FFFFFF;}
	.st12{clip-path:url(#SVGID_16_);fill:#FFFFFF;}
	.st13{clip-path:url(#SVGID_18_);fill:#FFFFFF;}
	.st14{clip-path:url(#SVGID_20_);fill:#FFFFFF;}
	.st15{clip-path:url(#SVGID_22_);fill:#787978;}
	.st16{clip-path:url(#SVGID_24_);fill:#787978;}
	.st17{clip-path:url(#SVGID_26_);fill:#787978;}
	.st18{clip-path:url(#SVGID_28_);fill:#787978;}
	.st19{clip-path:url(#SVGID_30_);fill:#787978;}
	.st20{clip-path:url(#SVGID_32_);fill:#787978;}
	.st21{fill:#007AFF;}
	.st22{clip-path:url(#SVGID_34_);fill:#FFFFFF;}
	.st23{clip-path:url(#SVGID_36_);fill:#00A53C;}
	.st24{clip-path:url(#SVGID_38_);fill:#7D7D7D;}
	.st25{clip-path:url(#SVGID_40_);fill:#FFFFFF;}
	.st26{clip-path:url(#SVGID_42_);fill:#FFFFFF;}
	.st27{clip-path:url(#SVGID_44_);fill:#FFFFFF;}
	.st28{clip-path:url(#SVGID_46_);fill:#FFFFFF;}
	.st29{clip-path:url(#SVGID_48_);fill:#FFFFFF;}
	.st30{clip-path:url(#SVGID_50_);fill:#FFFFFF;}
	.st31{clip-path:url(#SVGID_52_);fill:#FFFFFF;}
	.st32{clip-path:url(#SVGID_54_);fill:#787978;}
	.st33{clip-path:url(#SVGID_56_);fill:#787978;}
	.st34{clip-path:url(#SVGID_58_);fill:#787978;}
	.st35{clip-path:url(#SVGID_60_);fill:#787978;}
	.st36{clip-path:url(#SVGID_62_);fill:#787978;}
	.st37{clip-path:url(#SVGID_64_);fill:#787978;}
</style>
<g>
	<path class="st1" d="M43.6,20.9c-3.4,0-6.2-2.8-6.2-6.2s2.8-6.2,6.2-6.2c3.4,0,6.2,2.8,6.2,6.2S47.1,20.9,43.6,20.9z M43.6,10.9
		c-2.1,0-3.7,1.7-3.7,3.7c0,2.1,1.7,3.7,3.7,3.7c2.1,0,3.7-1.7,3.7-3.7C47.4,12.6,45.7,10.9,43.6,10.9z"/>
	<path class="st1" d="M43.6,47.9c-1.3,0-2.4-1-2.5-2.3c-0.5-3.9-3.2-9.4-5.8-14.7c-3.1-6.3-6-12.2-6-16.6C29.3,6.4,35.7,0,43.6,0
		C51.6,0,58,6.4,58,14.4c0,4.2-2.8,9.9-5.8,15.9c-2.7,5.5-5.6,11.1-6,15.4C46,46.9,45,47.9,43.6,47.9C43.7,47.9,43.6,47.9,43.6,47.9
		z M43.6,2.5c-6.6,0-11.9,5.3-11.9,11.9c0,3.8,2.9,9.7,5.8,15.4c2.7,5.5,5.5,11.2,6,15.6l0.1,0.1l0,1.2l0-1.2
		c0.5-4.8,3.5-10.6,6.3-16.3c2.7-5.5,5.6-11.1,5.6-14.8C55.5,7.8,50.2,2.5,43.6,2.5z"/>
	<path class="st1" d="M38.6,56.4c-0.2,0-0.3,0-0.5-0.1L19.9,49L1.7,56.3c-0.4,0.2-0.8,0.1-1.2-0.1c-0.3-0.2-0.5-0.6-0.5-1V10.3
		c0-0.5,0.3-1,0.8-1.2l18.7-7.5c0.3-0.1,0.6-0.1,1,0l8.7,3.7c0.6,0.3,0.9,1,0.7,1.6c-0.3,0.6-1,0.9-1.6,0.7l-8.3-3.5l-17.4,7v42.2
		l17-6.8c0.3-0.1,0.6-0.1,0.9,0l18.2,7.3l16.2-7V27.7c0-0.7,0.6-1.2,1.2-1.2c0.7,0,1.2,0.6,1.2,1.2v19.9c0,0.5-0.3,0.9-0.8,1.1
		l-17.5,7.5C39,56.3,38.8,56.4,38.6,56.4z"/>
	<path class="st1" d="M19.9,48.9c-0.7,0-1.2-0.6-1.2-1.2V2.8c0-0.7,0.6-1.2,1.2-1.2c0.7,0,1.2,0.6,1.2,1.2v44.9
		C21.2,48.3,20.6,48.9,19.9,48.9z"/>
	<path class="st1" d="M38.6,56.4c-0.7,0-1.2-0.6-1.2-1.2v-10c0-0.7,0.6-1.2,1.2-1.2c0.7,0,1.2,0.6,1.2,1.2v10
		C39.9,55.8,39.3,56.4,38.6,56.4z"/>
</g>
</svg>
