<?xml version="1.0" encoding="utf-8"?>
<!-- Generator: Adobe Illustrator 21.0.2, SVG Export Plug-In . SVG Version: 6.00 Build 0)  -->
<svg version="1.1" id="Layer_1" xmlns="http://www.w3.org/2000/svg" xmlns:xlink="http://www.w3.org/1999/xlink" x="0px" y="0px"
	 viewBox="0 0 145.7 102.6" style="enable-background:new 0 0 145.7 102.6;" xml:space="preserve">
<style type="text/css">
	.st0{opacity:0.1;}
	.st1{fill:#967256;}
	.st2{fill:none;stroke:#00FFFF;stroke-width:4;stroke-miterlimit:10;}
	.st3{fill:none;stroke:#00FFFF;stroke-width:4;stroke-linecap:round;stroke-miterlimit:10;}
	.st4{fill:none;stroke:#F68B2D;stroke-width:4;stroke-miterlimit:10;}
	.st5{fill:#F68B2D;}
	.st6{fill:none;stroke:#00FFFF;stroke-width:4;stroke-linecap:round;stroke-linejoin:round;stroke-miterlimit:10;}
	.st7{fill:none;stroke:#00FFFF;stroke-width:4;stroke-linejoin:round;stroke-miterlimit:10;}
	.st8{clip-path:url(#SVGID_2_);fill:none;stroke:#2C982C;stroke-width:2;stroke-miterlimit:10;}
	.st9{clip-path:url(#SVGID_4_);fill:#2C982C;}
	.st10{clip-path:url(#SVGID_6_);fill:none;stroke:#2C982C;stroke-width:2;stroke-miterlimit:10;}
	.st11{clip-path:url(#SVGID_8_);fill:none;stroke:#2C982C;stroke-width:2;stroke-miterlimit:10;}
	.st12{clip-path:url(#SVGID_10_);fill:#2C982C;}
	.st13{fill:none;stroke:#B21818;stroke-width:0.1;stroke-miterlimit:10;}
	.st14{clip-path:url(#SVGID_12_);}
	.st15{clip-path:url(#SVGID_14_);enable-background:new    ;}
	.st16{clip-path:url(#SVGID_16_);}
	.st17{clip-path:url(#SVGID_18_);}
	.st18{clip-path:url(#SVGID_20_);fill:#CD6716;}
	.st19{clip-path:url(#SVGID_22_);}
	.st20{clip-path:url(#SVGID_24_);enable-background:new    ;}
	.st21{clip-path:url(#SVGID_26_);}
	.st22{clip-path:url(#SVGID_28_);}
	.st23{clip-path:url(#SVGID_30_);fill:#F27F24;}
	.st24{clip-path:url(#SVGID_32_);}
	.st25{clip-path:url(#SVGID_34_);fill:#F49040;}
	.st26{clip-path:url(#SVGID_36_);}
	.st27{clip-path:url(#SVGID_38_);fill:#F8AA1F;}
	.st28{clip-path:url(#SVGID_40_);}
	.st29{clip-path:url(#SVGID_42_);fill:#FCFDFD;}
	.st30{clip-path:url(#SVGID_44_);}
	.st31{clip-path:url(#SVGID_46_);fill:#FFE0C8;}
	.st32{clip-path:url(#SVGID_48_);}
	.st33{clip-path:url(#SVGID_50_);fill:#CD6716;}
	.st34{clip-path:url(#SVGID_52_);}
	.st35{clip-path:url(#SVGID_54_);fill:#CD6716;}
	.st36{clip-path:url(#SVGID_56_);}
	.st37{clip-path:url(#SVGID_58_);fill:#CD6716;}
	.st38{clip-path:url(#SVGID_60_);}
	.st39{clip-path:url(#SVGID_62_);fill:#CD6716;}
	.st40{clip-path:url(#SVGID_64_);}
	.st41{clip-path:url(#SVGID_66_);fill:#CD6716;}
	.st42{clip-path:url(#SVGID_68_);}
	.st43{clip-path:url(#SVGID_70_);fill:#CD6716;}
	.st44{clip-path:url(#SVGID_72_);}
	.st45{clip-path:url(#SVGID_74_);fill:#CD6716;}
	.st46{clip-path:url(#SVGID_76_);}
	.st47{clip-path:url(#SVGID_78_);fill:#CD6716;}
	.st48{clip-path:url(#SVGID_80_);}
	.st49{clip-path:url(#SVGID_82_);fill:#CD6716;}
	.st50{clip-path:url(#SVGID_84_);}
	.st51{clip-path:url(#SVGID_86_);fill:#CD6716;}
	.st52{clip-path:url(#SVGID_88_);}
	.st53{clip-path:url(#SVGID_90_);fill:#CD6716;}
	.st54{clip-path:url(#SVGID_92_);}
	.st55{clip-path:url(#SVGID_94_);fill:#CD6716;}
	.st56{clip-path:url(#SVGID_96_);}
	.st57{clip-path:url(#SVGID_98_);fill:#CD6716;}
	.st58{clip-path:url(#SVGID_100_);}
	.st59{clip-path:url(#SVGID_102_);fill:#CD6716;}
	.st60{clip-path:url(#SVGID_104_);}
	.st61{clip-path:url(#SVGID_106_);fill:#CD6716;}
	.st62{clip-path:url(#SVGID_108_);}
	.st63{clip-path:url(#SVGID_110_);fill:#CD6716;}
	.st64{clip-path:url(#SVGID_112_);}
	.st65{clip-path:url(#SVGID_114_);fill:#CD6716;}
	.st66{clip-path:url(#SVGID_116_);}
	.st67{clip-path:url(#SVGID_118_);fill:#CD6716;}
	.st68{clip-path:url(#SVGID_120_);}
	.st69{clip-path:url(#SVGID_122_);fill:#CD6716;}
	.st70{clip-path:url(#SVGID_124_);}
	.st71{clip-path:url(#SVGID_126_);fill:#44843C;}
	.st72{clip-path:url(#SVGID_128_);}
	.st73{clip-path:url(#SVGID_130_);fill:#44843C;}
	.st74{clip-path:url(#SVGID_132_);}
	.st75{clip-path:url(#SVGID_134_);fill:#4D9B44;}
	.st76{clip-path:url(#SVGID_136_);}
	.st77{clip-path:url(#SVGID_138_);fill:#FEFEFE;}
	.st78{clip-path:url(#SVGID_140_);}
	.st79{clip-path:url(#SVGID_142_);enable-background:new    ;}
	.st80{clip-path:url(#SVGID_144_);}
	.st81{clip-path:url(#SVGID_146_);}
	.st82{clip-path:url(#SVGID_148_);fill:#BBBABA;}
</style>
<g>
	<g>
		<defs>
			<rect id="SVGID_11_" x="69.7" width="41.2" height="95.2"/>
		</defs>
		<clipPath id="SVGID_2_">
			<use xlink:href="#SVGID_11_"  style="overflow:visible;"/>
		</clipPath>
		<g style="clip-path:url(#SVGID_2_);">
			<defs>
				<rect id="SVGID_13_" x="-887" y="-739.6" width="1920" height="2473"/>
			</defs>
			<clipPath id="SVGID_4_">
				<use xlink:href="#SVGID_13_"  style="overflow:visible;"/>
			</clipPath>
			<g style="clip-path:url(#SVGID_4_);enable-background:new    ;">
				<g>
					<defs>
						<rect id="SVGID_15_" x="69" y="-0.6" width="42" height="96"/>
					</defs>
					<clipPath id="SVGID_6_">
						<use xlink:href="#SVGID_15_"  style="overflow:visible;"/>
					</clipPath>
					<g style="clip-path:url(#SVGID_6_);">
						<defs>
							<path id="SVGID_17_" d="M99.2,14.6c0-8-6.6-14.6-14.7-14.6c-8.1,0-14.7,6.5-14.7,14.6v9h4.2v-9c0-5.8,4.7-10.4,10.5-10.4
								C90.3,4.2,95,8.8,95,14.6v9h0.3v71.7h15.6V23.5H99.2V14.6z"/>
						</defs>
						<clipPath id="SVGID_8_">
							<use xlink:href="#SVGID_17_"  style="overflow:visible;"/>
						</clipPath>
						<g style="clip-path:url(#SVGID_8_);">
							<defs>
								<rect id="SVGID_19_" x="69" y="-0.6" width="42" height="96"/>
							</defs>
							<clipPath id="SVGID_10_">
								<use xlink:href="#SVGID_19_"  style="overflow:visible;"/>
							</clipPath>
							<rect x="64.7" y="-5" style="clip-path:url(#SVGID_10_);fill:#CD6716;" width="51.2" height="105.2"/>
						</g>
					</g>
				</g>
			</g>
		</g>
	</g>
	<g>
		<defs>
			<rect id="SVGID_21_" x="39.3" width="56" height="95.2"/>
		</defs>
		<clipPath id="SVGID_12_">
			<use xlink:href="#SVGID_21_"  style="overflow:visible;"/>
		</clipPath>
		<g class="st14">
			<defs>
				<rect id="SVGID_23_" x="-887" y="-739.6" width="1920" height="2473"/>
			</defs>
			<clipPath id="SVGID_14_">
				<use xlink:href="#SVGID_23_"  style="overflow:visible;"/>
			</clipPath>
			<g class="st15">
				<g>
					<defs>
						<rect id="SVGID_25_" x="39" y="-0.6" width="57" height="96"/>
					</defs>
					<clipPath id="SVGID_16_">
						<use xlink:href="#SVGID_25_"  style="overflow:visible;"/>
					</clipPath>
					<g class="st16">
						<defs>
							<path id="SVGID_27_" d="M82,14.6C82,6.5,75.4,0,67.3,0c-8.1,0-14.7,6.5-14.7,14.6v9H39.3v71.7h56V23.5H82V14.6z M77.8,23.5
								H56.8v-9c0-5.8,4.7-10.4,10.5-10.4c5.8,0,10.5,4.7,10.5,10.4V23.5z"/>
						</defs>
						<clipPath id="SVGID_18_">
							<use xlink:href="#SVGID_27_"  style="overflow:visible;"/>
						</clipPath>
						<g class="st17">
							<defs>
								<rect id="SVGID_29_" x="39" y="-0.6" width="57" height="96"/>
							</defs>
							<clipPath id="SVGID_20_">
								<use xlink:href="#SVGID_29_"  style="overflow:visible;"/>
							</clipPath>
							<rect x="34.3" y="-5" style="clip-path:url(#SVGID_20_);fill:#F27F24;" width="66" height="105.2"/>
						</g>
					</g>
				</g>
			</g>
		</g>
	</g>
	<g>
		<defs>
			<path id="SVGID_31_" d="M26.3,56.2C14,56.2,4,66.2,4,78.4c0,12.2,10,22.1,22.4,22.1c12.4,0,22.4-9.9,22.4-22.1
				C48.7,66.2,38.7,56.2,26.3,56.2 M26.3,97.7c-10.8,0-19.6-8.7-19.6-19.4C6.8,67.7,15.5,59,26.3,59c10.8,0,19.6,8.7,19.6,19.4
				C45.9,89.1,37.1,97.7,26.3,97.7"/>
		</defs>
		<clipPath id="SVGID_22_">
			<use xlink:href="#SVGID_31_"  style="overflow:visible;"/>
		</clipPath>
		<g class="st19">
			<defs>
				<rect id="SVGID_33_" x="-887" y="-739.6" width="1920" height="2473"/>
			</defs>
			<clipPath id="SVGID_24_">
				<use xlink:href="#SVGID_33_"  style="overflow:visible;"/>
			</clipPath>
			<rect x="-1" y="51.2" style="clip-path:url(#SVGID_24_);fill:#F49040;" width="54.8" height="54.3"/>
		</g>
	</g>
	<g>
		<defs>
			<path id="SVGID_35_" d="M26.3,59C15.5,59,6.8,67.7,6.8,78.4c0,10.7,8.8,19.4,19.6,19.4c10.8,0,19.6-8.7,19.6-19.4
				C45.9,67.7,37.1,59,26.3,59 M26.3,87.6c-5.1,0-9.3-4.1-9.3-9.2c0-5.1,4.2-9.2,9.3-9.2c5.1,0,9.3,4.1,9.3,9.2
				C35.7,83.5,31.5,87.6,26.3,87.6"/>
		</defs>
		<clipPath id="SVGID_26_">
			<use xlink:href="#SVGID_35_"  style="overflow:visible;"/>
		</clipPath>
		<g class="st21">
			<defs>
				<rect id="SVGID_37_" x="-887" y="-739.6" width="1920" height="2473"/>
			</defs>
			<clipPath id="SVGID_28_">
				<use xlink:href="#SVGID_37_"  style="overflow:visible;"/>
			</clipPath>
			<rect x="1.8" y="54" style="clip-path:url(#SVGID_28_);fill:#F8AA1F;" width="49.2" height="48.7"/>
		</g>
	</g>
	<g>
		<defs>
			<path id="SVGID_39_" d="M26.3,69.2c-5.1,0-9.3,4.1-9.3,9.2c0,5.1,4.2,9.2,9.3,9.2c5.1,0,9.3-4.1,9.3-9.2
				C35.7,73.3,31.5,69.2,26.3,69.2 M26.3,85.8c-4.1,0-7.5-3.3-7.5-7.4c0-4.1,3.3-7.4,7.5-7.4c4.1,0,7.5,3.3,7.5,7.4
				C33.8,82.4,30.5,85.8,26.3,85.8"/>
		</defs>
		<clipPath id="SVGID_30_">
			<use xlink:href="#SVGID_39_"  style="overflow:visible;"/>
		</clipPath>
		<g style="clip-path:url(#SVGID_30_);">
			<defs>
				<rect id="SVGID_41_" x="-887" y="-739.6" width="1920" height="2473"/>
			</defs>
			<clipPath id="SVGID_32_">
				<use xlink:href="#SVGID_41_"  style="overflow:visible;"/>
			</clipPath>
			<rect x="12" y="64.2" style="clip-path:url(#SVGID_32_);fill:#FCFDFD;" width="28.7" height="28.4"/>
		</g>
	</g>
	<g>
		<defs>
			<path id="SVGID_43_" d="M34.7,54.6C30.2,52.9,15,52,7.2,63.2C3.5,68.5,1.7,75,3.6,83.9c0.7,3,2.7,8.1,4.9,7.7
				c1.4-0.3,1.2-2.8,1.3-3.9c0.1-2.5-0.8-5.4,1.6-5.3c1.7,0.1,1.3,2.4,3.1,2.2c1.2-0.1,1.1-3,1-4.1c-0.2-3.5,0.2-5.8,1.7-8.7
				c4-7.5,14.5-5.8,16.6-1.9c0.8,1.5,0.9,3.7,2.2,3.7c1.1,0,1.3-0.9,1.1-3.3c-0.3-4.3,2.8-4.1,2.5-1.1c-0.1,0.9-1,5.3,1.4,5.6
				c2.2,0.2,0.5-4.1,2.4-4.1c1.8-0.1,2,3.9,1.9,4.7c-0.1,4.4-0.9,8.5,1.4,9.2c2.6,0.7,5.2-7.6,1.4-17.5C46.2,62,41.3,57.2,34.7,54.6
				"/>
		</defs>
		<clipPath id="SVGID_34_">
			<use xlink:href="#SVGID_43_"  style="overflow:visible;"/>
		</clipPath>
		<g style="clip-path:url(#SVGID_34_);">
			<defs>
				<rect id="SVGID_45_" x="-887" y="-739.6" width="1920" height="2473"/>
			</defs>
			<clipPath id="SVGID_36_">
				<use xlink:href="#SVGID_45_"  style="overflow:visible;"/>
			</clipPath>
			<rect x="-2.2" y="48.6" style="clip-path:url(#SVGID_36_);fill:#FFE0C8;" width="57.3" height="48"/>
		</g>
	</g>
	<g>
		<defs>
			<path id="SVGID_47_" d="M38.9,59.6c0.6,0.9,2,0.1,1.4-0.8C39.8,57.9,38.4,58.7,38.9,59.6"/>
		</defs>
		<clipPath id="SVGID_38_">
			<use xlink:href="#SVGID_47_"  style="overflow:visible;"/>
		</clipPath>
		<g style="clip-path:url(#SVGID_38_);">
			<defs>
				<rect id="SVGID_49_" x="-887" y="-739.6" width="1920" height="2473"/>
			</defs>
			<clipPath id="SVGID_40_">
				<use xlink:href="#SVGID_49_"  style="overflow:visible;"/>
			</clipPath>
			<rect x="33.8" y="53.4" style="clip-path:url(#SVGID_40_);fill:#CD6716;" width="11.7" height="11.6"/>
		</g>
	</g>
	<g>
		<defs>
			<path id="SVGID_51_" d="M33.3,56.4c0.5,0.9,2,0.1,1.4-0.8C34.2,54.7,32.8,55.5,33.3,56.4"/>
		</defs>
		<clipPath id="SVGID_42_">
			<use xlink:href="#SVGID_51_"  style="overflow:visible;"/>
		</clipPath>
		<g style="clip-path:url(#SVGID_42_);">
			<defs>
				<rect id="SVGID_53_" x="-887" y="-739.6" width="1920" height="2473"/>
			</defs>
			<clipPath id="SVGID_44_">
				<use xlink:href="#SVGID_53_"  style="overflow:visible;"/>
			</clipPath>
			<rect x="28.2" y="50.2" style="clip-path:url(#SVGID_44_);fill:#CD6716;" width="11.7" height="11.6"/>
		</g>
	</g>
	<g>
		<defs>
			<path id="SVGID_55_" d="M29.5,58.3c0.6,0.9,2,0.1,1.4-0.8C30.4,56.5,28.9,57.3,29.5,58.3"/>
		</defs>
		<clipPath id="SVGID_46_">
			<use xlink:href="#SVGID_55_"  style="overflow:visible;"/>
		</clipPath>
		<g style="clip-path:url(#SVGID_46_);">
			<defs>
				<rect id="SVGID_57_" x="-887" y="-739.6" width="1920" height="2473"/>
			</defs>
			<clipPath id="SVGID_48_">
				<use xlink:href="#SVGID_57_"  style="overflow:visible;"/>
			</clipPath>
			<rect x="24.4" y="52" style="clip-path:url(#SVGID_48_);fill:#CD6716;" width="11.7" height="11.6"/>
		</g>
	</g>
	<g>
		<defs>
			<path id="SVGID_59_" d="M32.2,61.7c0.6,0.9,2,0.1,1.4-0.8C33.1,60,31.7,60.8,32.2,61.7"/>
		</defs>
		<clipPath id="SVGID_50_">
			<use xlink:href="#SVGID_59_"  style="overflow:visible;"/>
		</clipPath>
		<g style="clip-path:url(#SVGID_50_);">
			<defs>
				<rect id="SVGID_61_" x="-887" y="-739.6" width="1920" height="2473"/>
			</defs>
			<clipPath id="SVGID_52_">
				<use xlink:href="#SVGID_61_"  style="overflow:visible;"/>
			</clipPath>
			<rect x="27.1" y="55.5" style="clip-path:url(#SVGID_52_);fill:#CD6716;" width="11.7" height="11.6"/>
		</g>
	</g>
	<g>
		<defs>
			<path id="SVGID_63_" d="M26.3,63.5c0.6,0.9,2,0.1,1.4-0.8C27.1,61.7,25.7,62.5,26.3,63.5"/>
		</defs>
		<clipPath id="SVGID_54_">
			<use xlink:href="#SVGID_63_"  style="overflow:visible;"/>
		</clipPath>
		<g style="clip-path:url(#SVGID_54_);">
			<defs>
				<rect id="SVGID_65_" x="-887" y="-739.6" width="1920" height="2473"/>
			</defs>
			<clipPath id="SVGID_56_">
				<use xlink:href="#SVGID_65_"  style="overflow:visible;"/>
			</clipPath>
			<rect x="21.1" y="57.2" style="clip-path:url(#SVGID_56_);fill:#CD6716;" width="11.7" height="11.6"/>
		</g>
	</g>
	<g>
		<defs>
			<path id="SVGID_67_" d="M22.4,59.1c0.6,0.9,2,0.1,1.4-0.8C23.3,57.3,21.9,58.2,22.4,59.1"/>
		</defs>
		<clipPath id="SVGID_58_">
			<use xlink:href="#SVGID_67_"  style="overflow:visible;"/>
		</clipPath>
		<g style="clip-path:url(#SVGID_58_);">
			<defs>
				<rect id="SVGID_69_" x="-887" y="-739.6" width="1920" height="2473"/>
			</defs>
			<clipPath id="SVGID_60_">
				<use xlink:href="#SVGID_69_"  style="overflow:visible;"/>
			</clipPath>
			<rect x="17.3" y="52.9" style="clip-path:url(#SVGID_60_);fill:#CD6716;" width="11.7" height="11.6"/>
		</g>
	</g>
	<g>
		<defs>
			<path id="SVGID_71_" d="M19.6,62.4c0.4,0.6,1.3,0,0.9-0.6C20.2,61.2,19.2,61.8,19.6,62.4"/>
		</defs>
		<clipPath id="SVGID_62_">
			<use xlink:href="#SVGID_71_"  style="overflow:visible;"/>
		</clipPath>
		<g style="clip-path:url(#SVGID_62_);">
			<defs>
				<rect id="SVGID_73_" x="-887" y="-739.6" width="1920" height="2473"/>
			</defs>
			<clipPath id="SVGID_64_">
				<use xlink:href="#SVGID_73_"  style="overflow:visible;"/>
			</clipPath>
			<rect x="14.5" y="56.6" style="clip-path:url(#SVGID_64_);fill:#CD6716;" width="11.1" height="11.1"/>
		</g>
	</g>
	<g>
		<defs>
			<path id="SVGID_75_" d="M18.1,57.2c0.5,0.9,2,0.1,1.4-0.8C18.9,55.5,17.5,56.3,18.1,57.2"/>
		</defs>
		<clipPath id="SVGID_66_">
			<use xlink:href="#SVGID_75_"  style="overflow:visible;"/>
		</clipPath>
		<g style="clip-path:url(#SVGID_66_);">
			<defs>
				<rect id="SVGID_77_" x="-887" y="-739.6" width="1920" height="2473"/>
			</defs>
			<clipPath id="SVGID_68_">
				<use xlink:href="#SVGID_77_"  style="overflow:visible;"/>
			</clipPath>
			<rect x="12.9" y="51" style="clip-path:url(#SVGID_68_);fill:#CD6716;" width="11.7" height="11.6"/>
		</g>
	</g>
	<g>
		<defs>
			<path id="SVGID_79_" d="M13.9,58.5c0.6,0.9,2,0.1,1.4-0.8C14.8,56.7,13.3,57.6,13.9,58.5"/>
		</defs>
		<clipPath id="SVGID_70_">
			<use xlink:href="#SVGID_79_"  style="overflow:visible;"/>
		</clipPath>
		<g style="clip-path:url(#SVGID_70_);">
			<defs>
				<rect id="SVGID_81_" x="-887" y="-739.6" width="1920" height="2473"/>
			</defs>
			<clipPath id="SVGID_72_">
				<use xlink:href="#SVGID_81_"  style="overflow:visible;"/>
			</clipPath>
			<rect x="8.8" y="52.3" style="clip-path:url(#SVGID_72_);fill:#CD6716;" width="11.7" height="11.6"/>
		</g>
	</g>
	<g>
		<defs>
			<path id="SVGID_83_" d="M25,55.8c0.5,0.9,2,0.1,1.4-0.8C25.8,54,24.4,54.9,25,55.8"/>
		</defs>
		<clipPath id="SVGID_74_">
			<use xlink:href="#SVGID_83_"  style="overflow:visible;"/>
		</clipPath>
		<g style="clip-path:url(#SVGID_74_);">
			<defs>
				<rect id="SVGID_85_" x="-887" y="-739.6" width="1920" height="2473"/>
			</defs>
			<clipPath id="SVGID_76_">
				<use xlink:href="#SVGID_85_"  style="overflow:visible;"/>
			</clipPath>
			<rect x="19.8" y="49.5" style="clip-path:url(#SVGID_76_);fill:#CD6716;" width="11.7" height="11.6"/>
		</g>
	</g>
	<g>
		<defs>
			<path id="SVGID_87_" d="M41.4,63.4c0.5,0.8,1.8,0.1,1.3-0.8C42.2,61.9,40.9,62.6,41.4,63.4"/>
		</defs>
		<clipPath id="SVGID_78_">
			<use xlink:href="#SVGID_87_"  style="overflow:visible;"/>
		</clipPath>
		<g style="clip-path:url(#SVGID_78_);">
			<defs>
				<rect id="SVGID_89_" x="-887" y="-739.6" width="1920" height="2473"/>
			</defs>
			<clipPath id="SVGID_80_">
				<use xlink:href="#SVGID_89_"  style="overflow:visible;"/>
			</clipPath>
			<rect x="36.3" y="57.3" style="clip-path:url(#SVGID_80_);fill:#CD6716;" width="11.5" height="11.5"/>
		</g>
	</g>
	<g>
		<defs>
			<path id="SVGID_91_" d="M14.6,62.8c0.4,0.6,1.3,0,0.9-0.6C15.2,61.6,14.3,62.2,14.6,62.8"/>
		</defs>
		<clipPath id="SVGID_82_">
			<use xlink:href="#SVGID_91_"  style="overflow:visible;"/>
		</clipPath>
		<g style="clip-path:url(#SVGID_82_);">
			<defs>
				<rect id="SVGID_93_" x="-887" y="-739.6" width="1920" height="2473"/>
			</defs>
			<clipPath id="SVGID_84_">
				<use xlink:href="#SVGID_93_"  style="overflow:visible;"/>
			</clipPath>
			<rect x="9.5" y="57" style="clip-path:url(#SVGID_84_);fill:#CD6716;" width="11.1" height="11.1"/>
		</g>
	</g>
	<g>
		<defs>
			<path id="SVGID_95_" d="M9.6,62.6c0.5,0.8,1.7,0.1,1.3-0.7C10.4,61,9.1,61.8,9.6,62.6"/>
		</defs>
		<clipPath id="SVGID_86_">
			<use xlink:href="#SVGID_95_"  style="overflow:visible;"/>
		</clipPath>
		<g style="clip-path:url(#SVGID_86_);">
			<defs>
				<rect id="SVGID_97_" x="-887" y="-739.6" width="1920" height="2473"/>
			</defs>
			<clipPath id="SVGID_88_">
				<use xlink:href="#SVGID_97_"  style="overflow:visible;"/>
			</clipPath>
			<rect x="4.5" y="56.5" style="clip-path:url(#SVGID_88_);fill:#CD6716;" width="11.5" height="11.4"/>
		</g>
	</g>
	<g>
		<defs>
			<path id="SVGID_99_" d="M36.2,63.2c0.4,0.6,1.4,0,1-0.6C36.8,62,35.8,62.6,36.2,63.2"/>
		</defs>
		<clipPath id="SVGID_90_">
			<use xlink:href="#SVGID_99_"  style="overflow:visible;"/>
		</clipPath>
		<g style="clip-path:url(#SVGID_90_);">
			<defs>
				<rect id="SVGID_101_" x="-887" y="-739.6" width="1920" height="2473"/>
			</defs>
			<clipPath id="SVGID_92_">
				<use xlink:href="#SVGID_101_"  style="overflow:visible;"/>
			</clipPath>
			<rect x="31.1" y="57.3" style="clip-path:url(#SVGID_92_);fill:#CD6716;" width="11.2" height="11.1"/>
		</g>
	</g>
	<g>
		<defs>
			<path id="SVGID_103_" d="M8.2,67c0.4,0.6,1.3,0,0.9-0.6C8.8,65.8,7.8,66.3,8.2,67"/>
		</defs>
		<clipPath id="SVGID_94_">
			<use xlink:href="#SVGID_103_"  style="overflow:visible;"/>
		</clipPath>
		<g style="clip-path:url(#SVGID_94_);">
			<defs>
				<rect id="SVGID_105_" x="-887" y="-739.6" width="1920" height="2473"/>
			</defs>
			<clipPath id="SVGID_96_">
				<use xlink:href="#SVGID_105_"  style="overflow:visible;"/>
			</clipPath>
			<rect x="3.1" y="61.1" style="clip-path:url(#SVGID_96_);fill:#CD6716;" width="11.1" height="11.1"/>
		</g>
	</g>
	<g>
		<defs>
			<path id="SVGID_107_" d="M21.9,65.3c0.4,0.6,1.3,0,0.9-0.6C22.4,64.2,21.5,64.7,21.9,65.3"/>
		</defs>
		<clipPath id="SVGID_98_">
			<use xlink:href="#SVGID_107_"  style="overflow:visible;"/>
		</clipPath>
		<g style="clip-path:url(#SVGID_98_);">
			<defs>
				<rect id="SVGID_109_" x="-887" y="-739.6" width="1920" height="2473"/>
			</defs>
			<clipPath id="SVGID_100_">
				<use xlink:href="#SVGID_109_"  style="overflow:visible;"/>
			</clipPath>
			<rect x="16.8" y="59.5" style="clip-path:url(#SVGID_100_);fill:#CD6716;" width="11.1" height="11.1"/>
		</g>
	</g>
	<g>
		<defs>
			<path id="SVGID_111_" d="M35.1,66.4c0.4,0.6,1.3,0,0.9-0.6C35.7,65.3,34.7,65.8,35.1,66.4"/>
		</defs>
		<clipPath id="SVGID_102_">
			<use xlink:href="#SVGID_111_"  style="overflow:visible;"/>
		</clipPath>
		<g style="clip-path:url(#SVGID_102_);">
			<defs>
				<rect id="SVGID_113_" x="-887" y="-739.6" width="1920" height="2473"/>
			</defs>
			<clipPath id="SVGID_104_">
				<use xlink:href="#SVGID_113_"  style="overflow:visible;"/>
			</clipPath>
			<rect x="30" y="60.6" style="clip-path:url(#SVGID_104_);fill:#CD6716;" width="11.1" height="11.1"/>
		</g>
	</g>
	<g>
		<defs>
			<path id="SVGID_115_" d="M43.9,66.4c0.4,0.6,1.3,0,0.9-0.6C44.4,65.3,43.5,65.8,43.9,66.4"/>
		</defs>
		<clipPath id="SVGID_106_">
			<use xlink:href="#SVGID_115_"  style="overflow:visible;"/>
		</clipPath>
		<g style="clip-path:url(#SVGID_106_);">
			<defs>
				<rect id="SVGID_117_" x="-887" y="-739.6" width="1920" height="2473"/>
			</defs>
			<clipPath id="SVGID_108_">
				<use xlink:href="#SVGID_117_"  style="overflow:visible;"/>
			</clipPath>
			<rect x="38.8" y="60.6" style="clip-path:url(#SVGID_108_);fill:#CD6716;" width="11.1" height="11.1"/>
		</g>
	</g>
	<g>
		<defs>
			<path id="SVGID_119_" d="M15.4,65.7c0.4,0.6,1.3,0,0.9-0.6C16,64.5,15,65.1,15.4,65.7"/>
		</defs>
		<clipPath id="SVGID_110_">
			<use xlink:href="#SVGID_119_"  style="overflow:visible;"/>
		</clipPath>
		<g style="clip-path:url(#SVGID_110_);">
			<defs>
				<rect id="SVGID_121_" x="-887" y="-739.6" width="1920" height="2473"/>
			</defs>
			<clipPath id="SVGID_112_">
				<use xlink:href="#SVGID_121_"  style="overflow:visible;"/>
			</clipPath>
			<rect x="10.3" y="59.8" style="clip-path:url(#SVGID_112_);fill:#CD6716;" width="11.1" height="11.1"/>
		</g>
	</g>
	<g>
		<defs>
			<path id="SVGID_123_" d="M140.2,17.5c-0.2,0-0.4,0-0.6,0.1l-0.2,0.1l-15,8.6c-2.9,1.6-5.2,6.1-5.2,9.9v23.3v0.4
				c0.1,0.4,0.7,0.7,1.3,0.7c0.6,0,1.2-0.3,1.3-0.7v-0.4V34.7c0-1.9,1.2-4.1,2.6-4.9l14.4-8.2l1.5-0.8c0.2-0.3,0.4-0.6,0.5-0.9
				C141.1,18.6,140.9,17.6,140.2,17.5"/>
		</defs>
		<clipPath id="SVGID_114_">
			<use xlink:href="#SVGID_123_"  style="overflow:visible;"/>
		</clipPath>
		<g style="clip-path:url(#SVGID_114_);">
			<defs>
				<rect id="SVGID_125_" x="-887" y="-739.6" width="1920" height="2473"/>
			</defs>
			<clipPath id="SVGID_116_">
				<use xlink:href="#SVGID_125_"  style="overflow:visible;"/>
			</clipPath>
			<rect x="114.1" y="12.5" style="clip-path:url(#SVGID_116_);fill:#44843C;" width="31.8" height="53.1"/>
		</g>
	</g>
	<g>
		<defs>
			<polygon id="SVGID_127_" points="109.8,95.2 130.8,95.2 137.8,52.4 102.9,52.4 			"/>
		</defs>
		<clipPath id="SVGID_118_">
			<use xlink:href="#SVGID_127_"  style="overflow:visible;"/>
		</clipPath>
		<g style="clip-path:url(#SVGID_118_);">
			<defs>
				<rect id="SVGID_129_" x="-887" y="-739.6" width="1920" height="2473"/>
			</defs>
			<clipPath id="SVGID_120_">
				<use xlink:href="#SVGID_129_"  style="overflow:visible;"/>
			</clipPath>
			<rect x="97.9" y="47.4" style="clip-path:url(#SVGID_120_);fill:#44843C;" width="44.8" height="52.8"/>
		</g>
	</g>
	<g>
		<defs>
			<path id="SVGID_131_" d="M137.6,49.2h-34.5c-1.4,0-2.5,1.1-2.5,2.4c0,1.4,1.1,2.4,2.5,2.4h34.5c1.4,0,2.5-1.1,2.5-2.4
				C140.1,50.3,138.9,49.2,137.6,49.2"/>
		</defs>
		<clipPath id="SVGID_122_">
			<use xlink:href="#SVGID_131_"  style="overflow:visible;"/>
		</clipPath>
		<g style="clip-path:url(#SVGID_122_);">
			<defs>
				<rect id="SVGID_133_" x="-887" y="-739.6" width="1920" height="2473"/>
			</defs>
			<clipPath id="SVGID_124_">
				<use xlink:href="#SVGID_133_"  style="overflow:visible;"/>
			</clipPath>
			<rect x="95.6" y="44.2" style="clip-path:url(#SVGID_124_);fill:#4D9B44;" width="49.5" height="14.9"/>
		</g>
	</g>
	<g>
		<defs>
			<path id="SVGID_135_" d="M123.6,65.2c-1.4,0-2.7,0.6-3.4,1.8c-0.7-1.1-2-1.7-3.3-1.8c0,0,0,0,0,0c-3.4,0-3.6,4.2-2.3,6.5
				c0.8,1.4,2,2.6,3.2,3.5c0.7,0.5,1.4,0.9,2.1,1.3c0.4,0.2,0.7,0,1.1-0.3c2.7-1.6,6.7-5,5.5-8.7C126.1,66.3,125.1,65.2,123.6,65.2"
				/>
		</defs>
		<clipPath id="SVGID_126_">
			<use xlink:href="#SVGID_135_"  style="overflow:visible;"/>
		</clipPath>
		<g style="clip-path:url(#SVGID_126_);">
			<defs>
				<rect id="SVGID_137_" x="-887" y="-739.6" width="1920" height="2473"/>
			</defs>
			<clipPath id="SVGID_128_">
				<use xlink:href="#SVGID_137_"  style="overflow:visible;"/>
			</clipPath>
			<rect x="108.9" y="60.2" style="clip-path:url(#SVGID_128_);fill:#FEFEFE;" width="22.9" height="21.4"/>
		</g>
	</g>
	<g>
		<defs>
			<polygon id="SVGID_139_" points="0,98.9 0,102.6 145.7,102.6 145.7,98.9 145.7,95.2 0,95.2 			"/>
		</defs>
		<clipPath id="SVGID_130_">
			<use xlink:href="#SVGID_139_"  style="overflow:visible;"/>
		</clipPath>
		<g style="clip-path:url(#SVGID_130_);">
			<defs>
				<rect id="SVGID_141_" x="-887" y="-739.6" width="1920" height="2473"/>
			</defs>
			<clipPath id="SVGID_132_">
				<use xlink:href="#SVGID_141_"  style="overflow:visible;"/>
			</clipPath>
			<g style="clip-path:url(#SVGID_132_);enable-background:new    ;">
				<g>
					<defs>
						<rect id="SVGID_143_" y="94.4" width="146" height="9"/>
					</defs>
					<clipPath id="SVGID_134_">
						<use xlink:href="#SVGID_143_"  style="overflow:visible;"/>
					</clipPath>
					<g style="clip-path:url(#SVGID_134_);">
						<defs>
							<path id="SVGID_145_" d="M142,95.2H3.7c-2.1,0-3.7,1.6-3.7,3.7c0,2,1.7,3.7,3.7,3.7H142c2.1,0,3.7-1.6,3.7-3.7
								C145.7,96.9,144,95.2,142,95.2"/>
						</defs>
						<clipPath id="SVGID_136_">
							<use xlink:href="#SVGID_145_"  style="overflow:visible;"/>
						</clipPath>
						<g class="st76">
							<defs>
								<rect id="SVGID_147_" y="94.4" width="146" height="9"/>
							</defs>
							<clipPath id="SVGID_138_">
								<use xlink:href="#SVGID_147_"  style="overflow:visible;"/>
							</clipPath>
							<rect x="-5" y="90.2" style="clip-path:url(#SVGID_138_);fill:#BBBABA;" width="155.7" height="17.4"/>
						</g>
					</g>
				</g>
			</g>
		</g>
	</g>
</g>
</svg>
